<?xml version="1.0" encoding="UTF-8"?><svg id="Capa_2" xmlns="http://www.w3.org/2000/svg" viewBox="0 0 188.39 177.74"><defs><style>.cls-1{fill:#ea6116;}</style></defs><g id="Capa_1-2"><path class="cls-1" d="M180.55,0H10.13C6.38,0,3.19,3.01,2.45,7.16.12,20.39-.56,33.8.46,47.13c.4,5.3,1.44,11.17,6.75,14.59,3.23,2.08,7.53,2.88,11.69,3.4,2.67.33,5.36.61,8.06.6,33.03-.16,64.92,7.37,74.86,11.44,13.2,5.4,41.04,19.99,25.72,33.1-3.67,3.14-11.29,2.67-18.04-1.94-26.74-18.26-57.66-33.3-80.83-33.63-12.22-.18-19.48,13.5-6.74,22.02,39.18,26.2,67.1,78.46,113.27,80.95,23.17,1.25,36.92-11.18,44.32-26.66,4.37-9.15,6.22-19.08,5.01-28.8-1.03-8.27-4.2-18.99-10.06-26.06-3.66-4.41-8.38-8.36-13.35-11.91-8.29-5.93-18.28-10.28-28.66-13.67-24.35-7.95-51.15-11.14-76.85-15.48-4.32-.73-8.86-1.55-12.11-3.86-3.24-2.31-4.49-6.63-1.4-9.06,2.6-2.05,6.88-1.92,10.58-1.56,39.95,3.87,96.26,20.71,121.51,21.52,3.4.09,7.34-1.97,8.57-5.14,2.28-5.88,2.99-12.59,3.61-16.51,1.73-10.93,2.28-22.02,1.95-32.7,0-.03,0-.05,0-.08-.45-4.4-3.82-7.68-7.74-7.68Z"/><path class="cls-1" d="M10.64,102.67c-4.75-1.37-9.64,1.78-10.21,6.69-1.53,13.06.87,37.88,9.19,52.28,10.74,18.6,31.35,19.84,44.26,9.43,17.48-21.58-17.8-61.05-43.24-68.4Z"/></g></svg>